<?xml version="1.0" encoding="utf-8"?>
<!-- Generator: Adobe Illustrator 26.3.1, SVG Export Plug-In . SVG Version: 6.00 Build 0)  -->
<svg version="1.1" id="Layer_1" xmlns="http://www.w3.org/2000/svg" xmlns:xlink="http://www.w3.org/1999/xlink" x="0px" y="0px"
	 viewBox="0 0 280 280" style="enable-background:new 0 0 280 280;" xml:space="preserve">
<style type="text/css">
	.st0{fill-rule:evenodd;clip-rule:evenodd;fill:#E94F47;}
	.st1{fill-rule:evenodd;clip-rule:evenodd;fill:#E1251B;}
	.st2{fill-rule:evenodd;clip-rule:evenodd;fill:#B41E16;}
	.st3{fill-rule:evenodd;clip-rule:evenodd;}
	.st4{fill-rule:evenodd;clip-rule:evenodd;fill:#EE7B75;}
	.st5{fill:#00953B;}
</style>
<g>
	<path class="st0" d="M250.3,85.9c-10.7-17.2-42.6-18.8-55.5,5.6c-4.5,8.5-6.9,17.2-8.7,26.2c-3,10.1-8.2,23.6-18.8,44
		c-22.5,43.3-79.8,58.4-100,59.8c-20.3,1.4-32.1,11.9-37,12.9c-4.9,1.1-4.9,5.9-6.7,11.4c-1.8,5.5,2.3,10.3,2.3,10.3
		s1.5,0.7,8.6,2.1c7.1,1.4,19.1,12.5,48.1,18.4c29.1,6,107.1,0.4,150.1-73.8c6.8-11.7,11.3-22.7,14.1-33
		C259.1,137.5,260.3,102,250.3,85.9z M199.1,97.7c1-2.1,2.1-4.1,3.4-6c4.7-6.9,11.7-12.2,19.6-15c-8.3,6.6-14.3,13.1-19.5,22.7
		C201.3,101.6,198,100,199.1,97.7z"/>
	<path class="st1" d="M250.3,85.9c-10.7-17.2-42.6-18.8-55.5,5.6c-9.1,17.3-9.7,36-14.1,55.1c-2.9,13-7.9,31.9-22.1,47.6
		c9.9-4.1,27.1-20.7,27.1-20.7c-4.1,9.7-16,27.5-32.2,42.9c-17.3,12.2-37.4,20.2-59,22.4c-46.1,4.6-62.9,0.6-70.2,4.5
		c-0.2,0.8-0.4,1.6-0.7,2.5c-1.8,5.5,2.3,10.3,2.3,10.3s1.5,0.7,8.6,2.1c7.1,1.4,19.1,12.5,48.1,18.4c29.1,6,107.1,0.4,150.1-73.8
		c6.8-11.7,11.3-22.7,14.1-33C259.1,137.5,260.3,102,250.3,85.9z M199.1,97.7c1-2.1,2.1-4.1,3.4-6c4.7-6.9,11.7-12.2,19.6-15
		c-0.2,0.2-0.4,0.3-0.6,0.5l0,0c0,0,0,0,0,0c-0.4,0.3-0.7,0.6-1.1,0.9c0,0,0,0,0,0c-0.4,0.3-0.7,0.6-1,0.9c0,0,0,0,0,0
		c-0.7,0.6-1.4,1.2-2,1.8c0,0,0,0,0,0c-0.7,0.6-1.3,1.2-2,1.8c0,0,0,0,0,0c-4.9,4.8-9,10.1-12.7,16.8
		C201.3,101.6,198,100,199.1,97.7z"/>
	<path class="st2" d="M250.3,85.9c-1.1-1.8-2.4-3.4-4-4.8c4.5,18.4,1.8,46.5-8,72.5c-2.3,8.4-5.7,17.3-10.6,26.6c0,0,0,0,0,0
		c-7.7,18.7-20.8,38.6-42,57.8c-18.9,17.1-35,28.6-48.5,36.3c0.1,0,0.1,0,0.2-0.1c0.6-0.1,1.2-0.3,1.8-0.4c-0.6,0.2-1.2,0.3-1.8,0.4
		c-0.1,0-0.1,0-0.2,0.1c0,0,0,0,0,0c-16.3,3.9-31.4,4.7-42.9,3.9c34.6,2.3,100.4-9.5,138.5-75.3c6.8-11.7,11.3-22.7,14.1-33
		C259.1,137.5,260.3,102,250.3,85.9z"/>
	<path d="M131.5,221.5c47.3-17.5,80-74.7,77.2-124.2C205.9,121.5,202.6,184.5,131.5,221.5L131.5,221.5L131.5,221.5z"/>
	<path d="M70.4,234.2c-0.1,0-34.2,4-34.8,4.1c1.6,1.8,27.9-3,34.7-2.6c17.8,1.1,33.7-6.8,33.7-6.8C91.4,230.2,83.6,235,70.4,234.2
		L70.4,234.2L70.4,234.2z"/>
	<path class="st3" d="M30.9,255.5c0,0,3.1-3.9,4.2-8c1.1-4.1,2.1-7.7,2.1-7.7s0.7-4-3.2-4.6c-3.8-0.6-8,2.7-8,2.7
		S16.7,259.5,30.9,255.5L30.9,255.5L30.9,255.5z"/>
	<path class="st4" d="M168.2,200.9c0,0-20.2,23.7-57.5,31.7c-37.2,7.9-37.2,7.9-37.2,7.9s60.2,6.5,95.7-37
		C204.7,160,168.2,200.9,168.2,200.9L168.2,200.9L168.2,200.9z"/>
	<path class="st4" d="M116.9,212.3c0,0-18.3,9.3-32.7,11.1s-27.6,2.6-34,5.7c-6.4,3.1-6.4,3.1-6.4,3.1s7-3.5,16.5-4.4
		C85.5,225.6,108.2,221,116.9,212.3L116.9,212.3L116.9,212.3z"/>
	<path class="st4" d="M189.4,122.1c0,0-17.8,54.4-42,71.7C155.5,193.8,181.8,160.7,189.4,122.1L189.4,122.1L189.4,122.1z"/>
	<path id="XMLID_00000044900621629100642330000015459254700310267063_" class="st5" d="M246.9,74.6c0-2.4-2.8-11.7-12.6-15.2
		c5.1-19,0.9-44.8-20.1-57.8c-3.3,0-8.8,2-9.1,8.2c20.8,11.7,25.1,24.2,23.7,48.7c-7.5,0.1-15.5,5-17.5,8c-0.4,0.6-0.4,1.3-0.2,2
		c0.6,1.9,2.6,2.9,4.6,2.4c14.6-4.3,24.7,0.7,29.2,4.7C245.6,76.2,246.9,75.6,246.9,74.6z"/>
	<path d="M102.3,280c-6.3,0-13.3-0.4-20-1.8c-19.6-4-31.5-10.3-39.4-14.5c-3.7-2-6.6-3.5-8.7-3.9c-7.1-1.4-8.8-2.2-9-2.2l-0.3-0.1
		l-0.2-0.3c0,0-0.2-0.2-0.5-0.6c-2.1-1.4-3-4-2.6-7.9c0-1,0.1-2,0.4-2.9c0.5-2.3,1.2-4.6,1.7-6.1c0.3-1,0.6-1.8,1-2.5l0.1-0.3l0.1,0
		c1.1-2.1,2.8-3.3,5.1-3.8c1.2-0.3,3.2-1.3,5.7-2.7c6.3-3.5,16.9-9.2,31.6-10.3c5.6-0.4,13.1-1.8,20.7-3.8
		c9.5-2.5,19.2-6.1,27.9-10.3c10.7-5.1,20.2-11.2,28.2-18c9.4-8,16.8-17.1,21.9-27c9-17.4,15-31.3,18.7-43.6c0-0.2,0.1-0.5,0.1-0.7
		l0-0.1c0.1-0.3,0.1-0.5,0.2-0.7l0-0.1c0-0.2,0.1-0.5,0.2-0.7l0-0.2c0-0.2,0.1-0.5,0.1-0.7l0-0.2c0-0.2,0.1-0.4,0.1-0.6l0-0.2
		c0-0.2,0.1-0.4,0.1-0.6l0.1-0.2c0-0.2,0.1-0.4,0.1-0.6l0.1-0.3c0-0.2,0.1-0.4,0.1-0.6l0.1-0.3c0-0.2,0.1-0.4,0.1-0.6l0.1-0.3
		c0-0.2,0.1-0.4,0.1-0.6l0.1-0.3c0-0.2,0.1-0.4,0.1-0.5l0.1-0.3c0-0.2,0.1-0.3,0.1-0.5l0.1-0.3c0-0.2,0.1-0.3,0.1-0.5l0.1-0.3
		c0-0.2,0.1-0.3,0.1-0.5l0.1-0.3c0-0.2,0.1-0.3,0.2-0.5l0.1-0.4c0.1-0.2,0.1-0.3,0.2-0.5l0.1-0.4c0.1-0.2,0.1-0.3,0.2-0.5l0.1-0.4
		c0.1-0.2,0.1-0.3,0.2-0.5c0-0.1,0.1-0.3,0.1-0.4l0-0.1c0-0.1,0.1-0.3,0.1-0.4c0-0.1,0.1-0.2,0.1-0.3l0-0.1c0.1-0.2,0.1-0.3,0.2-0.5
		c0-0.1,0.1-0.3,0.1-0.4c0.1-0.1,0.1-0.3,0.2-0.4c0-0.1,0.1-0.2,0.1-0.3l0-0.1c0.1-0.2,0.1-0.3,0.2-0.4c0-0.1,0.1-0.2,0.1-0.3
		l0.1-0.2c0-0.1,0.1-0.2,0.1-0.3c0-0.1,0.1-0.2,0.1-0.3l0.1-0.1c0-0.1,0.1-0.2,0.1-0.4c0-0.1,0.1-0.2,0.1-0.3l0.1-0.2
		c0-0.1,0.1-0.2,0.1-0.3c0-0.1,0.1-0.2,0.1-0.3l0.1-0.2c0-0.1,0.1-0.2,0.1-0.3c0-0.1,0.1-0.2,0.1-0.3l0.1-0.2c0-0.1,0.1-0.2,0.1-0.3
		c0.1-0.1,0.1-0.2,0.2-0.3l0.1-0.2c0-0.1,0.1-0.2,0.1-0.3c0.1-0.1,0.1-0.2,0.2-0.4l0.1-0.2c0-0.1,0.1-0.2,0.1-0.2
		c0.1-0.1,0.1-0.2,0.2-0.4l0.2-0.5c0.1-0.2,0.2-0.3,0.2-0.5l0.1-0.2c0-0.1,0.1-0.1,0.1-0.2c0.1-0.3,0.3-0.5,0.4-0.8
		c2.9-5.4,6.7-9.8,11.5-13.1c4.3-3,9.4-5,14.7-5.8c10.6-1.6,21.5,1.7,28.3,8.6l0,0c0.4,0.4,0.8,0.8,1.1,1.2l0,0
		c0.2,0.2,0.3,0.4,0.5,0.6l0.1,0.1c0.3,0.4,0.6,0.8,0.9,1.2l0.1,0.1c0.1,0.2,0.3,0.4,0.4,0.6l0.1,0.1c0.2,0.2,0.3,0.4,0.4,0.6
		c0.6,1.1,1.3,2.2,1.8,3.4c0,0.1,0.1,0.1,0.1,0.2l0.1,0.2c0.1,0.2,0.2,0.3,0.2,0.5l0,0.1c0.2,0.5,0.4,1,0.6,1.6
		c0.1,0.2,0.2,0.5,0.3,0.7c0.2,0.6,0.4,1.1,0.5,1.5c0,0.1,0,0.1,0.1,0.2l0.1,0.2c0.1,0.2,0.1,0.4,0.2,0.6c0,0.1,0,0.2,0.1,0.2l0,0.1
		c0.2,0.6,0.3,1.2,0.5,1.8c0,0.1,0.1,0.2,0.1,0.4l0.1,0.4c0,0.1,0.1,0.3,0.1,0.4c0.1,0.6,0.3,1.2,0.4,1.8l0,0.2c0,0.1,0,0.2,0.1,0.3
		c0.1,0.6,0.2,1.3,0.4,2.1l0,0.1c0,0.1,0,0.1,0,0.2c0.1,0.4,0.1,0.7,0.2,1.1l0,0.1c0,0.3,0.1,0.5,0.1,0.8l0,0.2c0,0.1,0,0.1,0,0.2
		c0,0.2,0,0.3,0.1,0.5l0,0.4c0,0.1,0,0.2,0,0.4c0,0.1,0,0.3,0,0.4l0,0.4c0,0.2,0,0.3,0,0.5c0,0.1,0,0.2,0,0.3l0,0.4
		c0,0.2,0,0.3,0,0.5c0.1,1.2,0.2,2.5,0.2,3.8l0,0.1c0,0.3,0,0.6,0,0.8l0,0.2c0,0.1,0,0.2,0,0.3c0,0.2,0,0.3,0,0.5l0,0.5
		c0,0.1,0,0.3,0,0.4c0,0.4,0,0.7,0,1.1l0,0.3c0,0.4,0,0.8,0,1.2l0,0.2c0,0.4,0,0.9,0,1.3l0,0.1c0,1.4-0.1,2.8-0.1,4.2l0,0
		c-0.1,1.8-0.2,3.7-0.4,5.5l0,0.3c-0.1,1-0.2,2-0.3,2.9l0,0c-0.3,2.4-0.6,4.9-1,7.4l0,0.1c-1.7,10.5-4.5,20.8-8.3,30.8
		c-2.8,10.2-7.2,20.7-13,31.1l-0.2,0.3c-0.4,0.7-0.7,1.3-1.1,1.9c-0.3,0.5-0.6,1.1-1,1.6c-0.1,0.1-0.1,0.2-0.2,0.3l-0.1,0.2
		c-0.2,0.4-0.4,0.7-0.7,1.1c-0.1,0.2-0.2,0.4-0.4,0.6c-0.2,0.3-0.4,0.7-0.6,1c-0.1,0.2-0.2,0.4-0.4,0.6c-0.2,0.3-0.4,0.7-0.7,1
		l-0.1,0.2c-0.1,0.1-0.1,0.2-0.2,0.3c-0.3,0.4-0.5,0.8-0.8,1.3l-0.2,0.3c-0.3,0.5-0.7,1-1,1.5c-0.1,0.1-0.1,0.2-0.2,0.3l-0.1,0.2
		c-0.2,0.4-0.5,0.7-0.7,1.1c-0.1,0.1-0.2,0.3-0.3,0.4l-0.1,0.1c-0.2,0.3-0.4,0.6-0.7,0.9c-0.1,0.2-0.3,0.4-0.4,0.5
		c-0.2,0.3-0.5,0.6-0.7,0.9l-0.1,0.1c-0.1,0.1-0.2,0.2-0.3,0.4c-0.3,0.4-0.5,0.7-0.8,1.1l-0.1,0.1c-0.1,0.1-0.1,0.1-0.2,0.2
		c-0.4,0.5-0.7,0.9-1.1,1.4l-0.2,0.3c-0.3,0.4-0.6,0.7-0.8,1.1c-0.1,0.1-0.2,0.2-0.3,0.3l-0.1,0.1c-0.2,0.3-0.5,0.6-0.7,0.9
		c-0.1,0.2-0.3,0.3-0.4,0.5c-0.2,0.3-0.5,0.6-0.7,0.9l-0.1,0.1c-0.1,0.1-0.2,0.3-0.3,0.4c-0.3,0.3-0.5,0.6-0.8,0.9l-0.1,0.1
		c-0.1,0.1-0.1,0.2-0.2,0.2c-0.4,0.4-0.7,0.9-1.1,1.3l-0.1,0.1c-0.3,0.4-0.7,0.8-1,1.2l-0.4,0.4c-0.3,0.3-0.5,0.6-0.8,0.9
		c-0.1,0.1-0.3,0.3-0.4,0.4c-0.2,0.3-0.5,0.5-0.7,0.8l0,0c-0.1,0.1-0.2,0.3-0.4,0.4c-0.3,0.3-0.5,0.6-0.8,0.8l-0.1,0.1
		c-0.1,0.1-0.2,0.2-0.2,0.2c-0.4,0.4-0.7,0.7-1.1,1.1l-0.1,0.1c-0.4,0.4-0.8,0.8-1.2,1.2l-0.3,0.3c-0.3,0.3-0.6,0.6-0.8,0.8
		c-0.1,0.1-0.2,0.2-0.3,0.3l-0.1,0.1c-0.3,0.3-0.5,0.5-0.8,0.7c-0.1,0.1-0.3,0.3-0.4,0.4c-0.3,0.3-0.5,0.5-0.8,0.8l-0.4,0.4
		c-0.3,0.3-0.7,0.6-1,0.9l-0.2,0.2c-0.4,0.4-0.8,0.7-1.2,1.1l-0.3,0.2c-0.3,0.3-0.6,0.6-0.9,0.8c-0.1,0.1-0.2,0.2-0.3,0.3l-0.1,0.1
		c-0.3,0.2-0.5,0.5-0.8,0.7c-0.1,0.1-0.3,0.2-0.4,0.4c-0.3,0.2-0.5,0.5-0.8,0.7l-0.1,0.1c-0.1,0.1-0.2,0.2-0.3,0.3
		c-0.3,0.3-0.6,0.5-0.9,0.8l-0.1,0.1c-0.1,0.1-0.1,0.1-0.2,0.2c-0.4,0.3-0.8,0.7-1.2,1l-0.1,0.1c-0.4,0.3-0.7,0.6-1.1,0.8l-0.4,0.3
		c-0.3,0.2-0.6,0.4-0.9,0.7c-0.1,0.1-0.3,0.2-0.4,0.3c-0.3,0.2-0.6,0.4-0.8,0.6c-0.1,0.1-0.3,0.2-0.4,0.3c-0.3,0.2-0.6,0.4-0.9,0.6
		l-0.3,0.2c-0.8,0.6-1.7,1.2-2.5,1.7l-0.4,0.2c-0.3,0.2-0.6,0.4-0.9,0.6c-0.1,0.1-0.3,0.2-0.4,0.3l0,0c-0.3,0.2-0.6,0.4-0.8,0.6
		c-0.1,0.1-0.3,0.2-0.4,0.3c-0.3,0.2-0.6,0.4-0.9,0.6l-0.4,0.2c-0.4,0.2-0.7,0.5-1.1,0.7l-0.1,0.1c-0.4,0.3-0.8,0.5-1.3,0.8
		l-0.3,0.2c-0.3,0.2-0.6,0.4-0.9,0.6l-0.4,0.3c-0.3,0.2-0.6,0.3-0.8,0.5c-0.2,0.1-0.3,0.2-0.5,0.3c-0.3,0.2-0.6,0.3-0.8,0.5
		l-0.4,0.2c-0.3,0.2-0.6,0.4-1,0.5l-0.3,0.2c-0.4,0.2-0.8,0.5-1.3,0.7l-0.3,0.1c-0.3,0.2-0.7,0.4-1,0.5l-0.4,0.2
		c-0.3,0.1-0.6,0.3-0.8,0.4c-0.2,0.1-0.3,0.2-0.5,0.2c-0.3,0.1-0.5,0.3-0.8,0.4l-0.5,0.2c-0.3,0.1-0.6,0.3-0.9,0.4l-0.4,0.2
		c-0.4,0.2-0.8,0.4-1.3,0.6l-0.2,0.1c-0.4,0.2-0.7,0.3-1.1,0.5c-0.1,0-0.2,0.1-0.3,0.1l-0.1,0.1c-0.3,0.1-0.5,0.2-0.8,0.4
		c-0.2,0.1-0.3,0.1-0.5,0.2l0,0c-0.3,0.1-0.5,0.2-0.8,0.3c-0.2,0.1-0.3,0.1-0.5,0.2c-0.3,0.1-0.5,0.2-0.8,0.3l-0.5,0.2
		c-0.3,0.1-0.7,0.3-1,0.4l-0.3,0.1c-0.4,0.2-0.8,0.3-1.2,0.5l-0.5,0.2c-0.3,0.1-0.5,0.2-0.8,0.3c-0.2,0.1-0.4,0.1-0.5,0.2
		c-0.2,0.1-0.5,0.2-0.7,0.3c-0.2,0.1-0.4,0.1-0.6,0.2c-0.2,0.1-0.5,0.2-0.7,0.3l0,0c-0.2,0.1-0.3,0.1-0.5,0.2
		c-0.3,0.1-0.5,0.2-0.8,0.3l-0.2,0.1c-0.1,0-0.2,0.1-0.3,0.1c-0.4,0.1-0.8,0.3-1.2,0.4l-0.5,0.2c-0.2,0.1-0.5,0.2-0.7,0.2
		c-0.2,0.1-0.3,0.1-0.5,0.2l-0.1,0c-0.2,0.1-0.4,0.1-0.7,0.2c-0.2,0.1-0.4,0.1-0.6,0.2c-0.2,0.1-0.4,0.1-0.6,0.2l-0.1,0
		c-0.2,0.1-0.4,0.1-0.5,0.2c-0.2,0.1-0.4,0.1-0.6,0.2l-0.2,0.1c-0.1,0-0.3,0.1-0.4,0.1c-0.3,0.1-0.6,0.2-0.8,0.3
		c-0.3,0.1-0.6,0.2-0.9,0.3l-0.2,0.1c-0.1,0-0.3,0.1-0.4,0.1c-0.2,0.1-0.4,0.1-0.7,0.2c-0.2,0.1-0.4,0.1-0.6,0.2
		c-0.2,0.1-0.4,0.1-0.7,0.2c-0.2,0.1-0.4,0.1-0.5,0.2l0,0c-0.2,0.1-0.4,0.1-0.6,0.2l-0.6,0.2c-0.2,0.1-0.4,0.1-0.6,0.2l-0.4,0.1
		c-0.5,0.1-1,0.3-1.5,0.4l-0.4,0.1c-0.2,0.1-0.5,0.1-0.7,0.2l-0.4,0.1c-0.2,0.1-0.5,0.1-0.7,0.2c-0.1,0-0.3,0.1-0.4,0.1
		c-0.2,0.1-0.5,0.1-0.7,0.2l-0.4,0.1c-0.3,0.1-0.5,0.1-0.8,0.2l-0.3,0.1c-0.9,0.2-1.9,0.4-2.8,0.6l-0.3,0.1
		c-0.3,0.1-0.5,0.1-0.8,0.2l-0.3,0.1c-0.3,0.1-0.5,0.1-0.8,0.1l-0.3,0.1c-0.3,0.1-0.6,0.1-0.9,0.1l-0.1,0c-1,0.2-2,0.3-3,0.5l0,0
		c-0.3,0-0.6,0.1-0.9,0.1l-0.2,0c-0.3,0-0.6,0.1-0.9,0.1l-0.2,0c-0.3,0-0.6,0.1-0.9,0.1l0,0c-1.7,0.2-3.3,0.4-5,0.6l0,0
		C113,279.6,107.9,280,102.3,280z M26.8,254.9c0.7,0.2,2.9,0.9,8,1.9c2.6,0.5,5.5,2.1,9.6,4.2c7.7,4.1,19.4,10.3,38.6,14.2
		c9,1.8,21.1,2.2,33.2,1.1l0,0c1.6-0.2,3.3-0.3,4.9-0.6l0,0c0.3,0,0.6-0.1,0.9-0.1l0.2,0c0.3,0,0.6-0.1,0.9-0.1l0.2,0
		c0.3,0,0.6-0.1,0.9-0.1l0,0c1-0.1,2-0.3,3-0.5l0.1,0c0.3,0,0.6-0.1,0.8-0.1l0.3-0.1c0.3,0,0.5-0.1,0.8-0.1l0.3-0.1
		c0.3,0,0.5-0.1,0.8-0.2l0.3-0.1c0.9-0.2,1.8-0.4,2.7-0.6l0.3-0.1c0.3-0.1,0.5-0.1,0.8-0.2l0.4-0.1c0.2-0.1,0.5-0.1,0.7-0.2
		c0.1,0,0.3-0.1,0.4-0.1c0.2-0.1,0.5-0.1,0.7-0.2l0.4-0.1c0.2-0.1,0.5-0.1,0.7-0.2l0.4-0.1c0.5-0.1,1-0.2,1.5-0.4l0.4-0.1
		c0.2,0,0.4-0.1,0.6-0.1l0.6-0.2c0.2-0.1,0.4-0.1,0.6-0.2l0,0c0.2,0,0.4-0.1,0.5-0.1c0.2-0.1,0.4-0.1,0.7-0.2
		c0.2-0.1,0.4-0.1,0.6-0.2c0.2-0.1,0.4-0.1,0.6-0.2c0.1,0,0.3-0.1,0.4-0.1l0.2-0.1c0.3-0.1,0.6-0.2,0.9-0.3c0.3-0.1,0.6-0.2,0.8-0.3
		c0.1,0,0.3-0.1,0.4-0.1l0.2-0.1c0.2-0.1,0.4-0.1,0.6-0.2c0.2-0.1,0.4-0.1,0.5-0.2l0.1,0c0.2-0.1,0.4-0.1,0.6-0.2
		c0.2-0.1,0.4-0.1,0.6-0.2c0.2-0.1,0.4-0.1,0.6-0.2l0.1,0c0.2-0.1,0.3-0.1,0.5-0.2c0.2-0.1,0.5-0.2,0.7-0.2l0.5-0.2
		c0.4-0.1,0.8-0.3,1.2-0.4l0.5-0.2c0.3-0.1,0.5-0.2,0.8-0.3c0.2-0.1,0.3-0.1,0.5-0.2l0,0c0.2-0.1,0.5-0.2,0.7-0.3
		c0.2-0.1,0.4-0.1,0.5-0.2c0.2-0.1,0.5-0.2,0.7-0.3c0.2-0.1,0.4-0.1,0.5-0.2c0.3-0.1,0.5-0.2,0.8-0.3l0.5-0.2
		c0.4-0.2,0.8-0.3,1.2-0.5l0.3-0.1c0.3-0.1,0.7-0.3,1-0.4l0.5-0.2c0.3-0.1,0.5-0.2,0.8-0.3c0.2-0.1,0.3-0.1,0.5-0.2
		c0.3-0.1,0.5-0.2,0.8-0.3l0,0c0.1-0.1,0.3-0.1,0.4-0.2c0.3-0.1,0.5-0.2,0.8-0.4l0.1-0.1c0.1,0,0.2-0.1,0.3-0.1
		c0.4-0.2,0.7-0.3,1.1-0.5l0.2-0.1c0.4-0.2,0.8-0.4,1.2-0.6l0.4-0.2c0.3-0.1,0.6-0.3,0.9-0.4l0.5-0.2c0.3-0.1,0.5-0.3,0.8-0.4
		c0.2-0.1,0.3-0.2,0.5-0.2c0.3-0.1,0.5-0.3,0.8-0.4l0.4-0.2c0.3-0.2,0.7-0.3,1-0.5l0.3-0.1c0.4-0.2,0.8-0.4,1.2-0.7l0.3-0.2
		c0.3-0.2,0.6-0.4,0.9-0.5l0.4-0.2c0.3-0.2,0.6-0.3,0.8-0.5c0.1-0.1,0.3-0.2,0.4-0.3c0.3-0.2,0.5-0.3,0.8-0.5l0.4-0.3
		c0.3-0.2,0.6-0.4,0.9-0.6l0.3-0.2c0.4-0.3,0.8-0.5,1.2-0.8l0.1-0.1c0.4-0.2,0.7-0.5,1.1-0.7l0.4-0.2c0.3-0.2,0.6-0.4,0.9-0.5
		c0.1-0.1,0.3-0.2,0.4-0.3c0.3-0.2,0.5-0.4,0.8-0.5l0,0c0.1-0.1,0.3-0.2,0.4-0.3c0.3-0.2,0.6-0.4,0.9-0.6l0.3-0.2
		c0.8-0.6,1.6-1.1,2.4-1.7l0.3-0.2c0.3-0.2,0.6-0.4,0.9-0.6c0.1-0.1,0.3-0.2,0.4-0.3c0.3-0.2,0.5-0.4,0.8-0.6
		c0.1-0.1,0.3-0.2,0.4-0.3c0.3-0.2,0.6-0.4,0.8-0.6l0.4-0.3c0.4-0.3,0.7-0.5,1.1-0.8l0.1-0.1c0.4-0.3,0.8-0.6,1.2-1l0.3-0.2
		c0.3-0.2,0.6-0.5,0.9-0.7c0.1-0.1,0.2-0.2,0.3-0.2l0.1-0.1c0.3-0.2,0.5-0.4,0.8-0.7c0.1-0.1,0.3-0.2,0.4-0.3
		c0.3-0.2,0.5-0.5,0.8-0.7l0.1-0.1c0.1-0.1,0.2-0.2,0.3-0.2c0.3-0.3,0.6-0.5,0.9-0.8l0.3-0.2c0.4-0.3,0.8-0.7,1.2-1.1l0.2-0.2
		c0.3-0.3,0.6-0.6,1-0.9l0.4-0.3c0.3-0.2,0.5-0.5,0.8-0.7c0.1-0.1,0.3-0.3,0.4-0.4c0.3-0.2,0.5-0.5,0.8-0.7l0.1-0.1
		c0.1-0.1,0.2-0.2,0.3-0.3c0.3-0.3,0.6-0.5,0.8-0.8l0.3-0.3c0.4-0.4,0.8-0.8,1.1-1.2l0.1-0.1c0.4-0.4,0.7-0.7,1.1-1.1
		c0.1-0.1,0.1-0.2,0.2-0.2l0.1-0.1c0.3-0.3,0.5-0.5,0.8-0.8c0.1-0.1,0.2-0.3,0.4-0.4l0,0c0.2-0.3,0.5-0.5,0.7-0.8
		c0.1-0.1,0.3-0.3,0.4-0.4c0.3-0.3,0.5-0.6,0.8-0.8l0.3-0.4c0.3-0.4,0.7-0.8,1-1.1l0.1-0.1c0.4-0.4,0.7-0.8,1.1-1.3
		c0.1-0.1,0.1-0.1,0.2-0.2l0.1-0.2c0.3-0.3,0.5-0.6,0.8-0.9c0.1-0.1,0.2-0.3,0.3-0.4l0.1-0.1c0.2-0.3,0.5-0.6,0.7-0.9
		c0.1-0.2,0.3-0.3,0.4-0.5c0.2-0.3,0.5-0.6,0.7-0.9l0.1-0.1c0.1-0.1,0.2-0.2,0.2-0.3c0.3-0.4,0.6-0.7,0.8-1.1l0.2-0.3
		c0.3-0.5,0.7-0.9,1-1.4c0-0.1,0.1-0.1,0.1-0.2l0.1-0.2c0.3-0.3,0.5-0.7,0.8-1c0.1-0.1,0.2-0.2,0.3-0.4l0.1-0.1
		c0.2-0.3,0.4-0.6,0.7-0.9c0.1-0.2,0.3-0.4,0.4-0.5c0.2-0.3,0.4-0.6,0.7-0.9l0.1-0.1c0.1-0.1,0.2-0.3,0.3-0.4c0.2-0.3,0.5-0.7,0.7-1
		l0.1-0.2c0.1-0.1,0.1-0.2,0.2-0.2c0.3-0.5,0.7-1,1-1.5l0.2-0.3c0.3-0.4,0.5-0.8,0.8-1.2l0.3-0.5c0.2-0.3,0.4-0.7,0.6-1
		c0.1-0.2,0.2-0.4,0.4-0.6c0.2-0.3,0.4-0.7,0.6-1c0.1-0.2,0.2-0.4,0.4-0.6c0.2-0.4,0.4-0.7,0.6-1.1l0.1-0.2c0.1-0.1,0.1-0.2,0.2-0.3
		c0.3-0.5,0.6-1.1,0.9-1.6c0.3-0.6,0.7-1.2,1.1-1.9l0.2-0.3c5.7-10.2,10-20.5,12.7-30.5l0-0.1c3.7-9.8,6.5-20,8.2-30.3l0-0.1
		c0.4-2.4,0.7-4.9,1-7.3l0,0c0.1-1,0.2-1.9,0.3-2.9l0-0.3c0.2-1.8,0.3-3.7,0.4-5.4l0,0c0.1-1.4,0.1-2.8,0.1-4.1l0-0.1
		c0-0.4,0-0.8,0-1.2l0-0.2c0-0.4,0-0.8,0-1.2l0-0.2c0-0.4,0-0.7,0-1.1c0-0.1,0-0.3,0-0.4l0-0.5c0-0.2,0-0.3,0-0.5c0-0.1,0-0.1,0-0.2
		l0-0.3c0-0.3,0-0.5,0-0.8l0-0.1c-0.1-1.3-0.1-2.5-0.2-3.7c0-0.2,0-0.3,0-0.5l0-0.4c0-0.1,0-0.2,0-0.3c0-0.1,0-0.3,0-0.4l0-0.4
		c0-0.1,0-0.3,0-0.4c0-0.1,0-0.2,0-0.3l0-0.4c0-0.2,0-0.3-0.1-0.5c0-0.1,0-0.1,0-0.2l0-0.3c0-0.2-0.1-0.5-0.1-0.7l0-0.1
		c-0.1-0.4-0.1-0.7-0.2-1.1l0-0.3c-0.1-0.7-0.2-1.4-0.4-2c0-0.1,0-0.2,0-0.2l0-0.2c-0.1-0.7-0.3-1.2-0.4-1.7c0-0.1-0.1-0.2-0.1-0.4
		l-0.1-0.4c0-0.1-0.1-0.2-0.1-0.3c-0.1-0.5-0.3-1.1-0.5-1.7l0-0.2c0-0.1,0-0.1-0.1-0.2c-0.1-0.2-0.1-0.4-0.2-0.6l-0.1-0.2
		c0,0,0-0.1,0-0.1c-0.1-0.4-0.3-0.9-0.5-1.4c-0.1-0.2-0.2-0.5-0.3-0.7c-0.2-0.5-0.4-1-0.6-1.5l0-0.1c-0.1-0.2-0.1-0.3-0.2-0.4
		l-0.1-0.2c0-0.1,0-0.1-0.1-0.2c-0.5-1.1-1.1-2.1-1.7-3.1c-0.1-0.2-0.2-0.4-0.4-0.6l-0.1-0.1c-0.1-0.2-0.2-0.4-0.4-0.5l-0.1-0.1
		c-0.3-0.4-0.5-0.7-0.8-1.1l-0.1-0.1c-0.1-0.2-0.3-0.3-0.4-0.5l0,0c-0.3-0.4-0.6-0.7-1-1l0,0c-6.2-6.2-16-9.2-25.7-7.7
		c-4.8,0.7-9.5,2.5-13.4,5.2c-4.4,3-7.9,7-10.5,12c-0.1,0.3-0.3,0.5-0.4,0.8l-0.2,0.3c-0.1,0.2-0.2,0.3-0.2,0.5l-0.2,0.4
		c-0.1,0.1-0.1,0.2-0.2,0.3c0,0.1-0.1,0.1-0.1,0.2l-0.1,0.2c-0.1,0.1-0.1,0.2-0.2,0.3c0,0.1-0.1,0.2-0.1,0.3l-0.1,0.2
		c0,0.1-0.1,0.2-0.1,0.3c0,0.1-0.1,0.2-0.1,0.3l-0.1,0.2c0,0.1-0.1,0.2-0.1,0.3c0,0.1-0.1,0.2-0.1,0.3l-0.1,0.2
		c0,0.1-0.1,0.2-0.1,0.3c0,0.1-0.1,0.2-0.1,0.3l-0.1,0.2c0,0.1-0.1,0.2-0.1,0.3c0,0.1-0.1,0.2-0.1,0.4L193,99c0,0.1-0.1,0.2-0.1,0.3
		c0,0.1-0.1,0.2-0.1,0.3l-0.1,0.2c0,0.1-0.1,0.2-0.1,0.3c-0.1,0.1-0.1,0.3-0.2,0.4l-0.1,0.4c-0.1,0.1-0.1,0.3-0.2,0.4
		c0,0.1-0.1,0.3-0.1,0.4c-0.1,0.1-0.1,0.3-0.2,0.4l-0.1,0.4c0,0.1-0.1,0.3-0.1,0.4l0,0.1c0,0.1-0.1,0.2-0.1,0.4
		c-0.1,0.2-0.1,0.3-0.2,0.5l-0.1,0.4c-0.1,0.2-0.1,0.3-0.1,0.5l-0.1,0.4c0,0.2-0.1,0.3-0.1,0.5l-0.1,0.3c0,0.2-0.1,0.3-0.1,0.5
		l-0.1,0.3c0,0.2-0.1,0.3-0.1,0.5l-0.1,0.3c0,0.2-0.1,0.3-0.1,0.5l-0.1,0.3c0,0.2-0.1,0.3-0.1,0.5l-0.1,0.3c0,0.2-0.1,0.3-0.1,0.5
		l-0.1,0.3c0,0.2-0.1,0.4-0.1,0.5l-0.1,0.3c0,0.2-0.1,0.4-0.1,0.6l-0.1,0.3c0,0.2-0.1,0.4-0.1,0.6l-0.1,0.2c0,0.2-0.1,0.4-0.1,0.6
		l-0.1,0.2c0,0.2-0.1,0.4-0.1,0.6l0,0.2c0,0.2-0.1,0.4-0.1,0.6l0,0.2c0,0.2-0.1,0.4-0.1,0.7l0,0.1c-0.1,0.2-0.1,0.5-0.1,0.7l0,0.1
		c-0.1,0.2-0.1,0.5-0.2,0.7l0,0.1c-0.1,0.3-0.1,0.5-0.2,0.8l0,0.1c-3.8,12.6-9.8,26.6-18.9,44.3c-5.3,10.3-12.9,19.6-22.6,27.9
		c-8.2,7-18,13.2-28.9,18.4c-19.7,9.4-39.1,13.6-49.7,14.4c-14,1-23.8,6.3-30.3,9.9c-2.8,1.5-4.9,2.7-6.5,3c-1.5,0.3-2.4,1-3.1,2.5
		l0,0.1c-0.3,0.5-0.5,1.2-0.8,2.1l0,0.1c-0.5,1.4-1.2,3.5-1.6,5.7l0,0.1c-0.2,0.7-0.3,1.4-0.3,2.2l0,0.1c-0.2,1.9-0.1,4.4,1.4,5.2
		l0.3,0.2l0.2,0.3C26.6,254.7,26.7,254.8,26.8,254.9z M245.6,77.4c-0.7,0-1.3-0.2-1.9-0.7c-1.5-1.4-4.8-3.8-10.2-5.1
		c-5.4-1.4-11.4-1.1-17.6,0.7c-2.8,0.8-5.7-0.7-6.5-3.4c-0.4-1.2-0.2-2.4,0.4-3.3c2.2-3.3,9.9-8,17.3-8.6c0.6-12.3-0.4-20.4-3.5-27
		c-3.3-7.3-9.4-13.1-19.5-18.9l-0.8-0.5l0.1-1c0.4-7.1,6.6-9.6,10.7-9.6c0,0,0,0,0,0l0.4,0l0.4,0.2c10,6.2,17,15.7,20.5,27.6
		c2.8,9.8,3.1,20.6,0.6,30.7c4.9,2.1,7.8,5.5,9.4,8.1c1.9,3.1,2.9,6.3,2.9,8c0,1.1-0.6,2.1-1.6,2.6C246.4,77.3,246,77.4,245.6,77.4z
		 M226.4,67.6c2.7,0,5.4,0.3,7.9,1c5.4,1.3,9,3.7,10.9,5.3c-0.2-1.3-0.9-3.4-2.3-5.7c-1.5-2.4-4.3-5.6-9.1-7.4l-1.3-0.5l0.4-1.4
		c2.6-9.9,2.5-20.7-0.3-30.3c-3.2-10.9-9.7-19.8-18.8-25.6c-2.4,0.1-6.3,1.5-7.1,5.8c10.2,5.9,16.4,12,19.9,19.8
		c3.3,7.3,4.4,16.2,3.7,29.8l-0.1,1.4l-1.4,0c-7,0-14.5,4.8-16.3,7.3c-0.1,0.1-0.1,0.4,0,0.7c0.3,1.1,1.5,1.7,2.6,1.3
		C219,68.1,222.8,67.6,226.4,67.6z"/>
</g>
</svg>
