<?xml version="1.0" encoding="utf-8"?>
<!-- Generator: Adobe Illustrator 26.3.1, SVG Export Plug-In . SVG Version: 6.00 Build 0)  -->
<svg version="1.1" id="Layer_1" xmlns="http://www.w3.org/2000/svg" xmlns:xlink="http://www.w3.org/1999/xlink" x="0px" y="0px"
	 viewBox="0 0 280 280" style="enable-background:new 0 0 280 280;" xml:space="preserve">
<style type="text/css">
	.st0{fill:#FFFFFF;}
</style>
<path class="st0" d="M258.5,117.5c0-0.4,0-0.8,0-1.2l0-0.3c0-0.4,0-0.7,0-1.1c0-0.1,0-0.3,0-0.4l0-0.5c0-0.2,0-0.3,0-0.5
	c0-0.1,0-0.2,0-0.3l0-0.2c0-0.3,0-0.6,0-0.8l0-0.1c-0.1-1.3-0.1-2.6-0.2-3.8c0-0.2,0-0.3,0-0.5l0-0.4c0-0.1,0-0.2,0-0.3
	c0-0.2,0-0.3,0-0.5l0-0.4c0-0.1,0-0.3,0-0.4c0-0.1,0-0.2,0-0.4l0-0.4c0-0.2,0-0.3-0.1-0.5c0-0.1,0-0.1,0-0.2l0-0.2
	c0-0.3-0.1-0.5-0.1-0.8l0-0.1c-0.1-0.4-0.1-0.7-0.2-1.1c0-0.1,0-0.1,0-0.2l0-0.1c-0.1-0.7-0.2-1.4-0.4-2.1c0-0.1,0-0.2-0.1-0.3
	l0-0.2c-0.1-0.7-0.3-1.3-0.4-1.8c0-0.1-0.1-0.3-0.1-0.4l-0.1-0.4c0-0.1-0.1-0.2-0.1-0.4c-0.1-0.6-0.3-1.1-0.5-1.8l0-0.1
	c0-0.1,0-0.2-0.1-0.2c-0.1-0.2-0.1-0.4-0.2-0.6l-0.1-0.2c0-0.1,0-0.1-0.1-0.2c-0.2-0.5-0.3-1-0.5-1.5c-0.1-0.3-0.2-0.5-0.3-0.7
	c-0.2-0.6-0.4-1.1-0.6-1.6l0-0.1c-0.1-0.2-0.1-0.3-0.2-0.5l-0.1-0.2c0-0.1-0.1-0.1-0.1-0.2c-0.6-1.2-1.2-2.4-1.8-3.4
	c-0.1-0.2-0.3-0.4-0.4-0.6l-0.1-0.1c-0.1-0.2-0.3-0.4-0.4-0.6l-0.1-0.1c-0.3-0.4-0.6-0.8-0.9-1.2l-0.1-0.1c-0.2-0.2-0.3-0.4-0.5-0.6
	l0,0c-0.4-0.4-0.7-0.8-1.1-1.2l0,0c-6.8-6.9-17.7-10.2-28.3-8.6c-5.3,0.8-10.4,2.8-14.7,5.8c-4.8,3.3-8.7,7.7-11.5,13.1
	c-0.1,0.3-0.3,0.5-0.4,0.8c0,0.1-0.1,0.1-0.1,0.2l-0.1,0.2c-0.1,0.2-0.2,0.3-0.2,0.5l-0.2,0.5c-0.1,0.1-0.1,0.2-0.2,0.4
	c0,0.1-0.1,0.2-0.1,0.2l-0.1,0.2c-0.1,0.1-0.1,0.2-0.2,0.4c0,0.1-0.1,0.2-0.1,0.3l-0.1,0.2c-0.1,0.1-0.1,0.2-0.2,0.3
	c0,0.1-0.1,0.2-0.1,0.3l-0.1,0.2c0,0.1-0.1,0.2-0.1,0.3c0,0.1-0.1,0.2-0.1,0.3l-0.1,0.2c0,0.1-0.1,0.2-0.1,0.3
	c0,0.1-0.1,0.2-0.1,0.3l-0.1,0.2c0,0.1-0.1,0.2-0.1,0.3c-0.1,0.1-0.1,0.2-0.1,0.4l-0.1,0.1c0,0.1-0.1,0.2-0.1,0.3
	c0,0.1-0.1,0.2-0.1,0.3l-0.1,0.2c0,0.1-0.1,0.2-0.1,0.3c-0.1,0.1-0.1,0.3-0.2,0.4l0,0.1c0,0.1-0.1,0.2-0.1,0.3
	c-0.1,0.1-0.1,0.3-0.2,0.4c0,0.1-0.1,0.3-0.1,0.4c-0.1,0.1-0.1,0.3-0.2,0.5l0,0.1c0,0.1-0.1,0.2-0.1,0.3c0,0.1-0.1,0.3-0.1,0.4
	l0,0.1c0,0.1-0.1,0.3-0.1,0.4c-0.1,0.2-0.1,0.3-0.2,0.5l-0.1,0.4c-0.1,0.2-0.1,0.3-0.2,0.5l-0.1,0.4c-0.1,0.2-0.1,0.3-0.2,0.5
	l-0.1,0.4c-0.1,0.2-0.1,0.3-0.2,0.5l-0.1,0.3c0,0.2-0.1,0.3-0.1,0.5l-0.1,0.3c0,0.2-0.1,0.3-0.1,0.5l-0.1,0.3c0,0.2-0.1,0.3-0.1,0.5
	l-0.1,0.3c0,0.2-0.1,0.4-0.1,0.5l-0.1,0.3c0,0.2-0.1,0.4-0.1,0.6l-0.1,0.3c0,0.2-0.1,0.4-0.1,0.6l-0.1,0.3c0,0.2-0.1,0.4-0.1,0.6
	l-0.1,0.3c0,0.2-0.1,0.4-0.1,0.6l-0.1,0.2c0,0.2-0.1,0.4-0.1,0.6l0,0.2c0,0.2-0.1,0.4-0.1,0.6l0,0.2c-0.1,0.2-0.1,0.4-0.1,0.7l0,0.2
	c-0.1,0.2-0.1,0.5-0.2,0.7l0,0.1c-0.1,0.2-0.1,0.5-0.2,0.7l0,0.1c0,0.2-0.1,0.5-0.1,0.7c-3.7,12.4-9.6,26.2-18.7,43.6
	c-5.1,9.9-12.5,19-21.9,27c-8,6.8-17.5,12.9-28.2,18c-8.7,4.2-18.4,7.7-27.9,10.3c-7.6,2-15.1,3.4-20.7,3.8
	c-14.7,1-25.3,6.8-31.6,10.3c-2.5,1.4-4.5,2.5-5.7,2.7c-2.3,0.5-4,1.8-5.1,3.8l-0.1,0l-0.1,0.3c-0.3,0.7-0.7,1.5-1,2.5
	c-0.5,1.5-1.2,3.7-1.7,6.1c-0.3,0.9-0.4,1.9-0.4,2.9c-0.3,3.9,0.6,6.5,2.6,7.9c0.3,0.4,0.4,0.6,0.5,0.6l0.2,0.3l0.3,0.1
	c0.2,0.1,1.9,0.8,9,2.2c2.1,0.4,5.1,2,8.7,3.9c7.9,4.2,19.8,10.5,39.4,14.5c6.7,1.4,13.7,1.8,20,1.8c5.7,0,10.7-0.4,14.2-0.7l0,0
	c1.6-0.2,3.3-0.4,5-0.6l0,0c0.3,0,0.6-0.1,0.9-0.1l0.2,0c0.3,0,0.6-0.1,0.9-0.1l0.2,0c0.3,0,0.6-0.1,0.9-0.1l0,0c1-0.1,2-0.3,3-0.5
	l0.1,0c0.3,0,0.6-0.1,0.9-0.1l0.3-0.1c0.3,0,0.5-0.1,0.8-0.1l0.3-0.1c0.3-0.1,0.5-0.1,0.8-0.2l0.3-0.1c0.9-0.2,1.9-0.4,2.8-0.6
	l0.3-0.1c0.3-0.1,0.5-0.1,0.8-0.2l0.4-0.1c0.2-0.1,0.5-0.1,0.7-0.2c0.1,0,0.3-0.1,0.4-0.1c0.2-0.1,0.5-0.1,0.7-0.2l0.4-0.1
	c0.2-0.1,0.5-0.1,0.7-0.2l0.4-0.1c0.5-0.1,1-0.2,1.5-0.4l0.4-0.1c0.2,0,0.4-0.1,0.6-0.2l0.6-0.2c0.2-0.1,0.4-0.1,0.6-0.2l0,0
	c0.2,0,0.4-0.1,0.5-0.2c0.2-0.1,0.4-0.1,0.7-0.2c0.2-0.1,0.4-0.1,0.6-0.2c0.2-0.1,0.4-0.1,0.7-0.2c0.1,0,0.3-0.1,0.4-0.1l0.2-0.1
	c0.3-0.1,0.6-0.2,0.9-0.3c0.3-0.1,0.6-0.2,0.8-0.3c0.1,0,0.3-0.1,0.4-0.1l0.2-0.1c0.2-0.1,0.4-0.1,0.6-0.2c0.2-0.1,0.4-0.1,0.5-0.2
	l0.1,0c0.2-0.1,0.4-0.1,0.6-0.2c0.2-0.1,0.4-0.1,0.6-0.2c0.2-0.1,0.4-0.1,0.7-0.2l0.1,0c0.2-0.1,0.3-0.1,0.5-0.2
	c0.2-0.1,0.5-0.2,0.7-0.2l0.5-0.2c0.4-0.1,0.8-0.3,1.2-0.4c0.1,0,0.2-0.1,0.3-0.1l0.2-0.1c0.3-0.1,0.5-0.2,0.8-0.3
	c0.2-0.1,0.3-0.1,0.5-0.2l0,0c0.2-0.1,0.5-0.2,0.7-0.3c0.2-0.1,0.4-0.1,0.6-0.2c0.2-0.1,0.5-0.2,0.7-0.3c0.2-0.1,0.4-0.1,0.5-0.2
	c0.3-0.1,0.5-0.2,0.8-0.3l0.5-0.2c0.4-0.2,0.8-0.3,1.2-0.5l0.3-0.1c0.3-0.1,0.7-0.3,1-0.4l0.5-0.2c0.3-0.1,0.5-0.2,0.8-0.3
	c0.2-0.1,0.3-0.1,0.5-0.2c0.3-0.1,0.5-0.2,0.8-0.3l0,0c0.2-0.1,0.3-0.1,0.5-0.2c0.3-0.1,0.5-0.2,0.8-0.4l0.1-0.1
	c0.1,0,0.2-0.1,0.3-0.1c0.4-0.2,0.7-0.3,1.1-0.5l0.2-0.1c0.4-0.2,0.8-0.4,1.3-0.6l0.4-0.2c0.3-0.1,0.6-0.3,0.9-0.4l0.5-0.2
	c0.3-0.1,0.5-0.3,0.8-0.4c0.2-0.1,0.3-0.2,0.5-0.2c0.3-0.1,0.6-0.3,0.8-0.4l0.4-0.2c0.3-0.2,0.7-0.4,1-0.5l0.3-0.1
	c0.4-0.2,0.8-0.5,1.3-0.7l0.3-0.2c0.3-0.2,0.6-0.4,1-0.5l0.4-0.2c0.3-0.2,0.6-0.3,0.8-0.5c0.2-0.1,0.3-0.2,0.5-0.3
	c0.3-0.2,0.6-0.3,0.8-0.5l0.4-0.3c0.3-0.2,0.6-0.4,0.9-0.6l0.3-0.2c0.4-0.3,0.8-0.5,1.3-0.8l0.1-0.1c0.4-0.2,0.7-0.5,1.1-0.7
	l0.4-0.2c0.3-0.2,0.6-0.4,0.9-0.6c0.1-0.1,0.3-0.2,0.4-0.3c0.3-0.2,0.6-0.4,0.8-0.6l0,0c0.1-0.1,0.3-0.2,0.4-0.3
	c0.3-0.2,0.6-0.4,0.9-0.6l0.4-0.2c0.8-0.6,1.7-1.2,2.5-1.7l0.3-0.2c0.3-0.2,0.6-0.4,0.9-0.6c0.1-0.1,0.3-0.2,0.4-0.3
	c0.3-0.2,0.6-0.4,0.8-0.6c0.1-0.1,0.3-0.2,0.4-0.3c0.3-0.2,0.6-0.4,0.9-0.7l0.4-0.3c0.4-0.3,0.7-0.6,1.1-0.8l0.1-0.1
	c0.4-0.3,0.8-0.7,1.2-1c0.1-0.1,0.1-0.1,0.2-0.2l0.1-0.1c0.3-0.3,0.6-0.5,0.9-0.8c0.1-0.1,0.2-0.2,0.3-0.3l0.1-0.1
	c0.3-0.2,0.5-0.5,0.8-0.7c0.1-0.1,0.3-0.2,0.4-0.4c0.3-0.2,0.5-0.5,0.8-0.7l0.1-0.1c0.1-0.1,0.2-0.2,0.3-0.3
	c0.3-0.3,0.6-0.5,0.9-0.8l0.3-0.2c0.4-0.4,0.8-0.7,1.2-1.1l0.2-0.2c0.3-0.3,0.7-0.6,1-0.9l0.4-0.4c0.3-0.3,0.5-0.5,0.8-0.8
	c0.1-0.1,0.3-0.3,0.4-0.4c0.3-0.2,0.5-0.5,0.8-0.7l0.1-0.1c0.1-0.1,0.2-0.2,0.3-0.3c0.3-0.3,0.6-0.6,0.8-0.8l0.3-0.3
	c0.4-0.4,0.8-0.8,1.2-1.2l0.1-0.1c0.4-0.4,0.7-0.7,1.1-1.1c0.1-0.1,0.2-0.2,0.2-0.2l0.1-0.1c0.3-0.3,0.5-0.6,0.8-0.8
	c0.1-0.1,0.2-0.3,0.4-0.4l0,0c0.2-0.3,0.5-0.5,0.7-0.8c0.1-0.1,0.3-0.3,0.4-0.4c0.3-0.3,0.5-0.6,0.8-0.9l0.4-0.4
	c0.3-0.4,0.7-0.8,1-1.2l0.1-0.1c0.4-0.4,0.7-0.9,1.1-1.3c0.1-0.1,0.1-0.2,0.2-0.2l0.1-0.1c0.3-0.3,0.5-0.6,0.8-0.9
	c0.1-0.1,0.2-0.3,0.3-0.4l0.1-0.1c0.2-0.3,0.5-0.6,0.7-0.9c0.1-0.2,0.3-0.3,0.4-0.5c0.2-0.3,0.5-0.6,0.7-0.9l0.1-0.1
	c0.1-0.1,0.2-0.2,0.3-0.3c0.3-0.4,0.6-0.7,0.8-1.1l0.2-0.3c0.4-0.5,0.7-0.9,1.1-1.4c0.1-0.1,0.1-0.1,0.2-0.2l0.1-0.1
	c0.3-0.4,0.5-0.7,0.8-1.1c0.1-0.1,0.2-0.2,0.3-0.4l0.1-0.1c0.2-0.3,0.5-0.6,0.7-0.9c0.1-0.2,0.3-0.4,0.4-0.5
	c0.2-0.3,0.4-0.6,0.7-0.9l0.1-0.1c0.1-0.1,0.2-0.3,0.3-0.4c0.2-0.4,0.5-0.7,0.7-1.1l0.1-0.2c0.1-0.1,0.1-0.2,0.2-0.3
	c0.3-0.5,0.7-1,1-1.5l0.2-0.3c0.3-0.4,0.6-0.8,0.8-1.3c0.1-0.1,0.1-0.2,0.2-0.3l0.1-0.2c0.2-0.3,0.4-0.7,0.7-1
	c0.1-0.2,0.2-0.4,0.4-0.6c0.2-0.3,0.4-0.7,0.6-1c0.1-0.2,0.2-0.4,0.4-0.6c0.2-0.4,0.4-0.7,0.7-1.1l0.1-0.2c0.1-0.1,0.1-0.2,0.2-0.3
	c0.3-0.5,0.6-1.1,1-1.6c0.3-0.6,0.7-1.2,1.1-1.9l0.2-0.3c5.8-10.4,10.2-20.9,13-31.1c3.8-10,6.6-20.3,8.3-30.8l0-0.1
	c0.4-2.5,0.8-5,1-7.4l0,0c0.1-1,0.2-2,0.3-2.9l0-0.3c0.2-1.9,0.3-3.7,0.4-5.5l0,0c0.1-1.4,0.1-2.8,0.1-4.2l0-0.1c0-0.4,0-0.9,0-1.3
	L258.5,117.5z M70.3,235.8c-5.9-0.4-26.9,3.3-33,3c0,0.6,0,1,0,1s-0.9,3.6-2.1,7.7c-1.1,4.1-4.2,8-4.2,8c-0.4,0.1-0.7,0.2-1,0.2
	c-1.8-0.4-2.7-0.7-3.2-0.9c-0.1-0.1-0.1-0.2-0.2-0.3l-0.2-0.3L26,254c-1.5-0.8-1.6-3.3-1.4-5.2l0-0.1c0-0.7,0.1-1.5,0.3-2.2l0-0.1
	c0.4-2.2,1.1-4.3,1.6-5.7l0-0.1c0.3-0.9,0.5-1.5,0.8-2.1l0-0.1c0.7-1.4,1.6-2.1,3.1-2.5c0.8-0.2,1.6-0.5,2.6-1c0.3,0,0.6,0,0.9,0.1
	c2.2,0.4,2.9,1.8,3.1,3c6.7-0.8,33.1-3.9,33.2-3.9c13.2,0.8,21-4,33.6-5.3C104,228.9,88.1,236.8,70.3,235.8z M208.3,115
	c-0.3,2.8-0.7,5.5-1.1,8.3c-0.1,0.4-0.1,0.8-0.2,1.2c-0.1,0.8-0.3,1.6-0.5,2.4c-0.1,0.4-0.2,0.8-0.2,1.2c-0.1,0.5-0.2,0.9-0.3,1.4
	c-0.2,0.7-0.3,1.4-0.5,2.2c-0.4,1.7-0.9,3.4-1.3,5.1c-0.4,1.5-0.9,2.9-1.3,4.4c-0.1,0.4-0.3,0.8-0.4,1.2c-0.3,0.8-0.5,1.6-0.8,2.3
	c-0.3,0.8-0.5,1.6-0.8,2.3c-0.3,0.8-0.6,1.5-0.9,2.3c-0.3,0.8-0.6,1.5-0.9,2.3c-0.3,0.8-0.6,1.5-1,2.3c-0.3,0.8-0.7,1.5-1,2.3
	c-0.7,1.6-1.5,3.3-2.3,4.9c-0.3,0.6-0.6,1.2-0.9,1.9c-0.4,0.7-0.8,1.5-1.2,2.2c-0.4,0.7-0.8,1.5-1.2,2.2c-0.2,0.4-0.4,0.7-0.6,1.1
	c-0.4,0.7-0.8,1.4-1.3,2.1c-0.3,0.6-0.7,1.2-1,1.7c-0.2,0.3-0.3,0.5-0.5,0.8c-0.8,1.3-1.6,2.5-2.4,3.8c-0.2,0.3-0.5,0.7-0.7,1
	c-1.4,2.1-2.8,4.1-4.3,6c-2.5,3.3-5.1,6.4-7.9,9.4c-1.4,1.5-2.8,3-4.3,4.4c-0.3,0.3-0.6,0.6-0.9,0.9c-0.9,0.8-1.8,1.7-2.7,2.5
	c-1.5,1.4-3,2.7-4.6,4c-0.6,0.5-1.3,1-1.9,1.5c-0.3,0.2-0.6,0.5-1,0.7c-0.6,0.5-1.3,1-1.9,1.4c-0.6,0.5-1.3,0.9-2,1.4
	c-1.4,1-2.9,2-4.4,2.9c-0.3,0.2-0.7,0.4-1,0.6c-2.1,1.3-4.2,2.5-6.3,3.6c-0.4,0.2-0.7,0.4-1.1,0.5c-0.4,0.2-0.7,0.4-1.1,0.5
	c-0.3,0.2-0.7,0.3-1,0.5c-2.3,1.1-4.7,2.1-7.1,3c0.8-0.4,1.6-0.8,2.4-1.3c0.6-0.3,1.2-0.6,1.8-1c3.6-2,7.1-4.1,10.3-6.2
	c0.6-0.4,1.3-0.8,1.9-1.3c0.3-0.2,0.6-0.4,0.9-0.6c0.7-0.4,1.3-0.9,1.9-1.4c2.5-1.8,4.9-3.6,7.1-5.4c1.5-1.2,3-2.5,4.5-3.8
	c0.1-0.1,0.2-0.2,0.3-0.2c0.7-0.6,1.4-1.2,2.1-1.9c1.2-1.1,2.3-2.2,3.4-3.2c8-8,14.4-16.3,19.5-24.7c0.2-0.3,0.3-0.6,0.5-0.8
	c1.8-3.1,3.5-6.2,5-9.2c0.1-0.2,0.2-0.5,0.4-0.7c0.8-1.6,1.5-3.2,2.2-4.8c0.1-0.2,0.2-0.4,0.3-0.7c3.1-7.2,5.3-14.2,7.1-20.9
	c0.1-0.3,0.2-0.7,0.3-1c0.2-0.6,0.3-1.2,0.4-1.8c0.1-0.4,0.2-0.8,0.3-1.2c0.2-0.7,0.3-1.3,0.4-2c0.1-0.3,0.1-0.6,0.2-1
	c1.2-5.5,2-10.6,2.6-15.2c0.1-0.5,0.1-1.1,0.2-1.6c0.1-1.1,0.3-2.1,0.4-3.1c0.2-1.5,0.3-2.9,0.5-4.3c0.1-0.7,0.1-1.3,0.2-2
	c0.1-1.1,0.2-2.1,0.3-3C209.1,103.1,208.9,109,208.3,115z M221.4,77.2C221.4,77.2,221.4,77.2,221.4,77.2
	C221.4,77.2,221.4,77.2,221.4,77.2c-0.7,0.6-1.5,1.2-2.2,1.8c0,0,0,0,0,0c0,0,0,0,0,0c0,0,0,0,0,0c-3.1,2.6-5.9,5.3-8.4,8.3
	c0,0,0,0-0.1,0.1c-0.5,0.6-1.1,1.3-1.6,1.9c0,0-0.1,0.1-0.1,0.1c-0.2,0.3-0.5,0.6-0.7,0.9c0,0,0,0.1-0.1,0.1c-0.3,0.3-0.5,0.7-0.7,1
	c0,0,0,0-0.1,0.1c-0.2,0.3-0.4,0.6-0.7,0.9c0,0.1-0.1,0.1-0.1,0.2c-0.5,0.7-0.9,1.3-1.4,2c-0.1,0.1-0.1,0.2-0.2,0.2
	c-0.2,0.3-0.4,0.6-0.5,0.9c0,0.1-0.1,0.1-0.1,0.2c-0.2,0.3-0.4,0.7-0.6,1.1c0,0.1-0.1,0.1-0.1,0.2c-0.2,0.3-0.3,0.6-0.5,0.9
	c-0.1,0.1-0.1,0.2-0.2,0.3c-0.2,0.4-0.4,0.7-0.6,1.1c-1.2,2.2-4.5,0.5-3.5-1.7c1-2.1,2.1-4.1,3.4-6c4.7-6.9,11.7-12.2,19.6-15
	C221.8,76.8,221.6,77,221.4,77.2z M204.3,11.1c2.2,1.3,4.2,2.5,6.1,3.8c0.5,0.4,1,0.7,1.5,1.1c0.5,0.4,1,0.7,1.4,1.1
	c0.2,0.2,0.5,0.4,0.7,0.6c1.6,1.3,3,2.7,4.3,4c0.2,0.2,0.4,0.4,0.5,0.6c0.3,0.4,0.7,0.8,1,1.2c0.5,0.6,0.9,1.2,1.4,1.9
	c0.3,0.4,0.6,0.8,0.8,1.3c0.7,1.1,1.2,2.2,1.8,3.3c0.9,2.1,1.7,4.3,2.3,6.7c0.2,0.7,0.3,1.5,0.5,2.3c0.1,0.5,0.2,1,0.3,1.6
	c0.7,4.6,0.8,9.9,0.5,16.4c-0.2,0-0.5,0-0.7,0.1c-0.5,0.1-0.9,0.1-1.4,0.2c-0.9,0.2-1.9,0.4-2.8,0.7c-1.8,0.5-3.6,1.3-5.2,2.1
	c-0.4,0.2-0.8,0.4-1.2,0.6c-1.9,1.1-3.5,2.2-4.7,3.4c-0.2,0.2-0.5,0.4-0.7,0.7c-0.1,0.1-0.2,0.2-0.3,0.3c-0.2,0.2-0.3,0.4-0.5,0.6
	c-0.2,0.3-0.4,0.7-0.5,1.1c-0.2,0.7-0.1,1.4,0.1,2.2c0.8,2.7,3.7,4.2,6.5,3.4c1.2-0.3,2.3-0.6,3.5-0.9c0.8-0.2,1.5-0.3,2.3-0.4
	c1.1-0.2,2.2-0.3,3.3-0.3c0.4,0,0.7,0,1.1,0c0.7,0,1.5,0,2.2,0.1s1.4,0.1,2.1,0.2c1.1,0.1,2.1,0.3,3.1,0.6c0.3,0.1,0.7,0.2,1,0.3
	c1.9,0.5,3.5,1.2,4.9,1.9c2,1.1,3.5,2.2,4.3,2.9c0.3,0.3,0.7,0.5,1.1,0.6c0.2,0.1,0.5,0.1,0.7,0.1c0.4,0,0.8-0.1,1.2-0.3
	c0.4-0.2,0.8-0.5,1.1-0.9c0.3-0.5,0.5-1.1,0.5-1.7c0-0.7-0.2-1.8-0.6-3c-0.1-0.2-0.1-0.3-0.2-0.5c-0.1-0.4-0.3-0.7-0.4-1.1
	c-0.4-1.1-1-2.3-1.8-3.4c-0.8-1.3-2-2.8-3.5-4.2c-0.6-0.5-1.2-1.1-1.9-1.6c-0.2-0.2-0.5-0.3-0.7-0.5c-1-0.7-2.1-1.3-3.3-1.8
	c0.6-2.5,1-5.1,1.3-7.7c0.3-2.6,0.4-5.2,0.3-7.8c-0.1-4.5-0.7-9-1.8-13.4c-0.2-0.6-0.3-1.2-0.5-1.8c-0.8-2.6-1.7-5.1-2.8-7.4
	c-0.3-0.7-0.6-1.3-1-2c-0.5-1-1-1.9-1.6-2.9c-3.8-6.2-8.9-11.4-15.1-15.3L214.6,0l-0.4,0c0,0,0,0,0,0c-1.5,0-3.3,0.4-5,1.2
	c-2.3,1.1-4.3,3-5.2,6c-0.2,0.6-0.3,1.2-0.4,1.8c0,0.2,0,0.4-0.1,0.7l-0.1,1l0.4,0.2L204.3,11.1z"/>
</svg>
